<mxfile host="65bd71144e">
    <diagram name="第 1 页" id="bs8eYXC9mmViumds0hXj">
        <mxGraphModel dx="1540" dy="849" grid="1" gridSize="10" guides="1" tooltips="1" connect="1" arrows="1" fold="1" page="1" pageScale="1" pageWidth="827" pageHeight="1169" background="#ffffff" math="0" shadow="0">
            <root>
                <mxCell id="0"/>
                <mxCell id="1" parent="0"/>
                <mxCell id="FItlaiYo_cd6ibQbwww_-57" value="" style="whiteSpace=wrap;html=1;fillColor=#8dd7cf;strokeColor=none;rounded=0;" parent="1" vertex="1">
                    <mxGeometry x="240" y="309.13" width="1220" height="430.87" as="geometry"/>
                </mxCell>
                <mxCell id="FItlaiYo_cd6ibQbwww_-56" value="" style="whiteSpace=wrap;html=1;fillColor=#fbe192;strokeColor=none;rounded=0;glass=0;shadow=0;" parent="1" vertex="1">
                    <mxGeometry x="240" y="760" width="1220" height="450" as="geometry"/>
                </mxCell>
                <mxCell id="FItlaiYo_cd6ibQbwww_-1" value="&lt;font color=&quot;#ffffff&quot;&gt;&lt;span style=&quot;font-size: 24px;&quot;&gt;哨兵SDK客观测试工具&lt;/span&gt;&lt;/font&gt;" style="rounded=0;whiteSpace=wrap;html=1;fillColor=#1BA1E2;" parent="1" vertex="1">
                    <mxGeometry x="260" y="320" width="260" height="40" as="geometry"/>
                </mxCell>
                <mxCell id="FItlaiYo_cd6ibQbwww_-2" value="&lt;font color=&quot;#ffffff&quot; style=&quot;font-size: 15px;&quot;&gt;#22581 [8155]奇瑞星途镁佳E03项目&lt;/font&gt;" style="rounded=0;whiteSpace=wrap;html=1;fillColor=#EA6B66;" parent="1" vertex="1">
                    <mxGeometry x="260" y="370" width="260" height="40" as="geometry"/>
                </mxCell>
                <mxCell id="FItlaiYo_cd6ibQbwww_-3" value="&lt;font style=&quot;font-size: 18px;&quot; color=&quot;#ffffff&quot;&gt;开发前待核对问题&lt;/font&gt;" style="rounded=0;whiteSpace=wrap;html=1;fillColor=#EA6B66;" parent="1" vertex="1">
                    <mxGeometry x="260" y="468.25" width="150" height="40" as="geometry"/>
                </mxCell>
                <mxCell id="FItlaiYo_cd6ibQbwww_-4" value="&lt;font color=&quot;#ffffff&quot;&gt;&lt;span style=&quot;font-size: 24px;&quot;&gt;核心模块&lt;/span&gt;&lt;/font&gt;" style="rounded=0;whiteSpace=wrap;html=1;fillColor=#1BA1E2;" parent="1" vertex="1">
                    <mxGeometry x="260" y="840" width="120" height="40" as="geometry"/>
                </mxCell>
                <mxCell id="FItlaiYo_cd6ibQbwww_-5" value="" style="rounded=0;whiteSpace=wrap;html=1;dashed=1;" parent="1" vertex="1">
                    <mxGeometry x="550" y="840" width="290" height="250" as="geometry"/>
                </mxCell>
                <mxCell id="FItlaiYo_cd6ibQbwww_-37" style="edgeStyle=orthogonalEdgeStyle;rounded=0;orthogonalLoop=1;jettySize=auto;html=1;exitX=1;exitY=0.5;exitDx=0;exitDy=0;" parent="1" source="FItlaiYo_cd6ibQbwww_-6" edge="1">
                    <mxGeometry relative="1" as="geometry">
                        <mxPoint x="950" y="890" as="targetPoint"/>
                    </mxGeometry>
                </mxCell>
                <mxCell id="FItlaiYo_cd6ibQbwww_-6" value="&lt;font color=&quot;#ffffff&quot;&gt;&lt;span style=&quot;font-size: 21px;&quot;&gt;sync decode&lt;/span&gt;&lt;/font&gt;" style="rounded=0;whiteSpace=wrap;html=1;fillColor=#1BA1E2;" parent="1" vertex="1">
                    <mxGeometry x="710" y="860" width="120" height="60" as="geometry"/>
                </mxCell>
                <mxCell id="FItlaiYo_cd6ibQbwww_-7" value="&lt;font color=&quot;#ffffff&quot; style=&quot;font-size: 21px;&quot;&gt;cfg&lt;br&gt;&lt;/font&gt;" style="rounded=0;whiteSpace=wrap;html=1;fillColor=#1BA1E2;" parent="1" vertex="1">
                    <mxGeometry x="560" y="860" width="120" height="60" as="geometry"/>
                </mxCell>
                <mxCell id="FItlaiYo_cd6ibQbwww_-48" style="edgeStyle=orthogonalEdgeStyle;rounded=0;orthogonalLoop=1;jettySize=auto;html=1;exitX=1;exitY=0.5;exitDx=0;exitDy=0;" parent="1" source="FItlaiYo_cd6ibQbwww_-8" edge="1">
                    <mxGeometry relative="1" as="geometry">
                        <mxPoint x="950" y="1046.9411764705883" as="targetPoint"/>
                    </mxGeometry>
                </mxCell>
                <mxCell id="FItlaiYo_cd6ibQbwww_-8" value="&lt;font color=&quot;#ffffff&quot;&gt;&lt;span style=&quot;font-size: 21px;&quot;&gt;sdk&lt;/span&gt;&lt;/font&gt;" style="rounded=0;whiteSpace=wrap;html=1;fillColor=#1BA1E2;" parent="1" vertex="1">
                    <mxGeometry x="707" y="1017" width="120" height="60" as="geometry"/>
                </mxCell>
                <mxCell id="FItlaiYo_cd6ibQbwww_-9" value="&lt;font color=&quot;#ffffff&quot; style=&quot;font-size: 21px;&quot;&gt;task&lt;/font&gt;" style="rounded=0;whiteSpace=wrap;html=1;fillColor=#1BA1E2;" parent="1" vertex="1">
                    <mxGeometry x="560" y="935" width="120" height="60" as="geometry"/>
                </mxCell>
                <mxCell id="FItlaiYo_cd6ibQbwww_-10" value="&lt;font color=&quot;#ffffff&quot; style=&quot;font-size: 21px;&quot;&gt;sdk result&lt;br&gt;callback&lt;br&gt;&lt;/font&gt;" style="rounded=0;whiteSpace=wrap;html=1;fillColor=#1BA1E2;" parent="1" vertex="1">
                    <mxGeometry x="560" y="1017" width="120" height="60" as="geometry"/>
                </mxCell>
                <mxCell id="FItlaiYo_cd6ibQbwww_-11" value="&lt;font color=&quot;#ffffff&quot;&gt;&lt;span style=&quot;font-size: 21px;&quot;&gt;cmdline&lt;/span&gt;&lt;/font&gt;" style="rounded=0;whiteSpace=wrap;html=1;fillColor=#1BA1E2;" parent="1" vertex="1">
                    <mxGeometry x="707" y="935" width="120" height="60" as="geometry"/>
                </mxCell>
                <mxCell id="FItlaiYo_cd6ibQbwww_-27" value="" style="rounded=0;whiteSpace=wrap;html=1;fillColor=#97D077;" parent="1" vertex="1">
                    <mxGeometry x="960" y="840" width="260" height="160" as="geometry"/>
                </mxCell>
                <mxCell id="FItlaiYo_cd6ibQbwww_-28" value="txt list" style="rounded=0;whiteSpace=wrap;html=1;fontFamily=Comic Sans MS;" parent="1" vertex="1">
                    <mxGeometry x="969.6199999999999" y="850" width="110.38" height="30" as="geometry"/>
                </mxCell>
                <mxCell id="FItlaiYo_cd6ibQbwww_-29" value="folder path" style="rounded=0;whiteSpace=wrap;html=1;" parent="1" vertex="1">
                    <mxGeometry x="1095" y="850" width="110.38" height="30" as="geometry"/>
                </mxCell>
                <mxCell id="FItlaiYo_cd6ibQbwww_-30" value="remote fetch" style="rounded=0;whiteSpace=wrap;html=1;" parent="1" vertex="1">
                    <mxGeometry x="969.6199999999999" y="890" width="110.38" height="30" as="geometry"/>
                </mxCell>
                <mxCell id="FItlaiYo_cd6ibQbwww_-31" value="local search" style="rounded=0;whiteSpace=wrap;html=1;" parent="1" vertex="1">
                    <mxGeometry x="1095" y="890" width="110.38" height="30" as="geometry"/>
                </mxCell>
                <mxCell id="FItlaiYo_cd6ibQbwww_-32" value="video" style="rounded=0;whiteSpace=wrap;html=1;" parent="1" vertex="1">
                    <mxGeometry x="969.6199999999999" y="927" width="60.38" height="23" as="geometry"/>
                </mxCell>
                <mxCell id="FItlaiYo_cd6ibQbwww_-33" value="jpg" style="rounded=0;whiteSpace=wrap;html=1;" parent="1" vertex="1">
                    <mxGeometry x="1040" y="927" width="60.38" height="23" as="geometry"/>
                </mxCell>
                <mxCell id="FItlaiYo_cd6ibQbwww_-34" value="uyv" style="rounded=0;whiteSpace=wrap;html=1;" parent="1" vertex="1">
                    <mxGeometry x="1110" y="927" width="60.38" height="23" as="geometry"/>
                </mxCell>
                <mxCell id="FItlaiYo_cd6ibQbwww_-35" value="async decode" style="rounded=0;whiteSpace=wrap;html=1;" parent="1" vertex="1">
                    <mxGeometry x="969.6199999999999" y="957" width="110.38" height="30" as="geometry"/>
                </mxCell>
                <mxCell id="FItlaiYo_cd6ibQbwww_-36" value="sync decode" style="rounded=0;whiteSpace=wrap;html=1;" parent="1" vertex="1">
                    <mxGeometry x="1095" y="957" width="110.38" height="30" as="geometry"/>
                </mxCell>
                <mxCell id="FItlaiYo_cd6ibQbwww_-38" value="" style="rounded=0;whiteSpace=wrap;html=1;fillColor=#97D077;" parent="1" vertex="1">
                    <mxGeometry x="960" y="1017" width="240" height="93" as="geometry"/>
                </mxCell>
                <mxCell id="FItlaiYo_cd6ibQbwww_-39" value="switch emtpy call" style="rounded=0;whiteSpace=wrap;html=1;" parent="1" vertex="1">
                    <mxGeometry x="969.62" y="1027" width="210.38" height="23" as="geometry"/>
                </mxCell>
                <mxCell id="FItlaiYo_cd6ibQbwww_-40" value="switch result process" style="rounded=0;whiteSpace=wrap;html=1;" parent="1" vertex="1">
                    <mxGeometry x="969.62" y="1063.5" width="210.38" height="26.5" as="geometry"/>
                </mxCell>
                <mxCell id="FItlaiYo_cd6ibQbwww_-49" value="&lt;font color=&quot;#ffffff&quot;&gt;&lt;span style=&quot;font-size: 18px;&quot;&gt;测试时的素材文件结构？&lt;/span&gt;&lt;/font&gt;" style="rounded=0;whiteSpace=wrap;html=1;fillColor=#1EAF9E;" parent="1" vertex="1">
                    <mxGeometry x="540" y="468.25" width="210" height="41.75" as="geometry"/>
                </mxCell>
                <mxCell id="FItlaiYo_cd6ibQbwww_-51" value="&lt;font color=&quot;#ffffff&quot;&gt;&lt;span style=&quot;font-size: 18px;&quot;&gt;sdk的图像检测是依次对每一路图像进行处理？&lt;/span&gt;&lt;/font&gt;" style="rounded=0;whiteSpace=wrap;html=1;fillColor=#1EAF9E;" parent="1" vertex="1">
                    <mxGeometry x="540" y="520" width="220" height="50" as="geometry"/>
                </mxCell>
                <mxCell id="FItlaiYo_cd6ibQbwww_-52" value="&lt;font color=&quot;#ffffff&quot;&gt;&lt;span style=&quot;font-size: 18px;&quot;&gt;测试环境问题：&lt;br&gt;公板&lt;/span&gt;&lt;/font&gt;" style="rounded=0;whiteSpace=wrap;html=1;fillColor=#1EAF9E;" parent="1" vertex="1">
                    <mxGeometry x="800" y="468.25" width="160" height="101.75" as="geometry"/>
                </mxCell>
                <mxCell id="FItlaiYo_cd6ibQbwww_-53" value="&lt;font color=&quot;#ffffff&quot;&gt;&lt;span style=&quot;font-size: 18px;&quot;&gt;授权对环境的要求？&lt;/span&gt;&lt;/font&gt;" style="rounded=0;whiteSpace=wrap;html=1;fillColor=#1EAF9E;" parent="1" vertex="1">
                    <mxGeometry x="985" y="468.25" width="210" height="41.75" as="geometry"/>
                </mxCell>
                <mxCell id="FItlaiYo_cd6ibQbwww_-54" value="&lt;font color=&quot;#ffffff&quot;&gt;&lt;span style=&quot;font-size: 18px;&quot;&gt;能否脱离摄像头设备，只进行送图？&lt;/span&gt;&lt;/font&gt;" style="rounded=0;whiteSpace=wrap;html=1;fillColor=#1EAF9E;" parent="1" vertex="1">
                    <mxGeometry x="985" y="520" width="210" height="41.75" as="geometry"/>
                </mxCell>
                <mxCell id="FItlaiYo_cd6ibQbwww_-55" value="&lt;font color=&quot;#ffffff&quot;&gt;&lt;span style=&quot;font-size: 18px;&quot;&gt;算法是单帧逻辑还是多帧逻辑，对前后送帧时序是否有要求？&lt;/span&gt;&lt;/font&gt;" style="rounded=0;whiteSpace=wrap;html=1;fillColor=#1EAF9E;" parent="1" vertex="1">
                    <mxGeometry x="540" y="580" width="220" height="70" as="geometry"/>
                </mxCell>
                <mxCell id="FItlaiYo_cd6ibQbwww_-58" value="" style="whiteSpace=wrap;html=1;fillColor=#C79FE7;strokeColor=none;rounded=0;glass=0;shadow=0;fontFamily=Comic Sans MS;" parent="1" vertex="1">
                    <mxGeometry x="240" y="1220" width="1220" height="450" as="geometry"/>
                </mxCell>
                <mxCell id="FItlaiYo_cd6ibQbwww_-59" value="&lt;font color=&quot;#ffffff&quot;&gt;&lt;span style=&quot;font-size: 24px;&quot;&gt;流程设计&lt;/span&gt;&lt;/font&gt;" style="rounded=0;whiteSpace=wrap;html=1;fillColor=#1BA1E2;" parent="1" vertex="1">
                    <mxGeometry x="260" y="1250" width="120" height="40" as="geometry"/>
                </mxCell>
                <mxCell id="FItlaiYo_cd6ibQbwww_-64" style="edgeStyle=orthogonalEdgeStyle;rounded=0;orthogonalLoop=1;jettySize=auto;html=1;exitX=0.5;exitY=1;exitDx=0;exitDy=0;entryX=0.25;entryY=0;entryDx=0;entryDy=0;" parent="1" source="FItlaiYo_cd6ibQbwww_-60" target="FItlaiYo_cd6ibQbwww_-62" edge="1">
                    <mxGeometry relative="1" as="geometry"/>
                </mxCell>
                <mxCell id="FItlaiYo_cd6ibQbwww_-60" value="&lt;font color=&quot;#ffffff&quot; style=&quot;font-size: 21px;&quot;&gt;&lt;font face=&quot;Comic Sans MS&quot;&gt;sdk wrap&lt;/font&gt;&lt;br&gt;&lt;/font&gt;" style="rounded=0;whiteSpace=wrap;html=1;fillColor=#1BA1E2;" parent="1" vertex="1">
                    <mxGeometry x="460" y="1250" width="120" height="60" as="geometry"/>
                </mxCell>
                <mxCell id="FItlaiYo_cd6ibQbwww_-65" style="edgeStyle=orthogonalEdgeStyle;rounded=0;orthogonalLoop=1;jettySize=auto;html=1;exitX=0.25;exitY=1;exitDx=0;exitDy=0;entryX=0.25;entryY=0;entryDx=0;entryDy=0;" parent="1" source="FItlaiYo_cd6ibQbwww_-62" target="FItlaiYo_cd6ibQbwww_-63" edge="1">
                    <mxGeometry relative="1" as="geometry"/>
                </mxCell>
                <mxCell id="FItlaiYo_cd6ibQbwww_-62" value="&lt;font color=&quot;#ffffff&quot; style=&quot;font-size: 21px;&quot;&gt;sync decode&lt;br&gt;develop and test&lt;br&gt;&lt;/font&gt;" style="rounded=0;whiteSpace=wrap;html=1;fillColor=#1BA1E2;" parent="1" vertex="1">
                    <mxGeometry x="460" y="1340" width="160" height="60" as="geometry"/>
                </mxCell>
                <mxCell id="FItlaiYo_cd6ibQbwww_-63" value="&lt;font color=&quot;#ffffff&quot; style=&quot;font-size: 21px;&quot;&gt;cfg&lt;br&gt;&lt;/font&gt;" style="rounded=0;whiteSpace=wrap;html=1;fillColor=#1BA1E2;" parent="1" vertex="1">
                    <mxGeometry x="460" y="1430" width="120" height="60" as="geometry"/>
                </mxCell>
                <mxCell id="3" value="Text" style="text;html=1;align=center;verticalAlign=middle;resizable=0;points=[];autosize=1;strokeColor=none;fillColor=none;fontFamily=Comic Sans MS;" parent="1" vertex="1">
                    <mxGeometry x="425" y="1755" width="50" height="30" as="geometry"/>
                </mxCell>
                <mxCell id="4" value="&lt;font&gt;Text&lt;/font&gt;" style="text;html=1;align=center;verticalAlign=middle;resizable=0;points=[];autosize=1;strokeColor=none;fillColor=none;fontFamily=Comic Sans MS Cursiva;" vertex="1" parent="1">
                    <mxGeometry x="180" y="1320" width="40" height="30" as="geometry"/>
                </mxCell>
                <mxCell id="5" value="Text" style="text;html=1;align=center;verticalAlign=middle;resizable=0;points=[];autosize=1;strokeColor=none;fillColor=none;fontFamily=Comic Sans MS;" vertex="1" parent="1">
                    <mxGeometry x="185" y="1165" width="50" height="30" as="geometry"/>
                </mxCell>
            </root>
        </mxGraphModel>
    </diagram>
</mxfile>